<svg width="30" height="30" viewBox="0 0 30 30" fill="none" xmlns="http://www.w3.org/2000/svg">
<path d="M8.47826 7.30769C12.4337 7.30769 15.6522 10.5344 15.6522 14.5C15.6522 18.4656 12.4337 21.6923 8.47826 21.6923C4.52283 21.6923 1.30435 18.4656 1.30435 14.5C1.30435 10.5344 4.52283 7.30769 8.47826 7.30769ZM8.47826 6C3.79565 6 0 9.80538 0 14.5C0 19.1946 3.79565 23 8.47826 23C13.1609 23 16.9565 19.1946 16.9565 14.5C16.9565 9.80538 13.1609 6 8.47826 6ZM21.8478 7.96154C23.233 7.96154 24.7826 10.758 24.7826 14.5C24.7826 18.242 23.233 21.0385 21.8478 21.0385C20.4626 21.0385 18.913 18.242 18.913 14.5C18.913 10.758 20.4626 7.96154 21.8478 7.96154ZM21.8478 6.65385C19.5065 6.65385 17.6087 10.167 17.6087 14.5C17.6087 18.833 19.5065 22.3462 21.8478 22.3462C24.1891 22.3462 26.087 18.833 26.087 14.5C26.087 10.167 24.1891 6.65385 21.8478 6.65385ZM28.3696 10.3003C28.5522 11.3341 28.6957 12.7523 28.6957 14.5C28.6957 16.2477 28.5522 17.6659 28.3696 18.6997C28.187 17.6659 28.0435 16.2477 28.0435 14.5C28.0435 12.7523 28.187 11.3341 28.3696 10.3003ZM28.3696 7.30769C27.4689 7.30769 26.7391 10.5279 26.7391 14.5C26.7391 18.4721 27.4689 21.6923 28.3696 21.6923C29.2702 21.6923 30 18.4721 30 14.5C30 10.5279 29.2702 7.30769 28.3696 7.30769Z" fill="white"/>
</svg>
